<?xml version="1.0" encoding="UTF-8" standalone="no"?>
<!-- Created with Inkscape (http://www.inkscape.org/) -->

<svg
   xmlns:dc="http://purl.org/dc/elements/1.1/"
   xmlns:cc="http://creativecommons.org/ns#"
   xmlns:rdf="http://www.w3.org/1999/02/22-rdf-syntax-ns#"
   xmlns:svg="http://www.w3.org/2000/svg"
   xmlns="http://www.w3.org/2000/svg"
   xmlns:sodipodi="http://sodipodi.sourceforge.net/DTD/sodipodi-0.dtd"
   xmlns:inkscape="http://www.inkscape.org/namespaces/inkscape"
   version="1.1"
   id="svg5830"
   xml:space="preserve"
   width="1280"
   height="720"
   viewBox="0 0 1280 720"
   sodipodi:docname="Presentation1.svg"
   inkscape:version="0.92.4 (5da689c313, 2019-01-14)"><metadata
     id="metadata5836"><rdf:RDF><cc:Work
         rdf:about=""><dc:format>image/svg+xml</dc:format><dc:type
           rdf:resource="http://purl.org/dc/dcmitype/StillImage" /><dc:title></dc:title></cc:Work></rdf:RDF></metadata><defs
     id="defs5834"><clipPath
       clipPathUnits="userSpaceOnUse"
       id="clipPath5846"><path
         d="M 0,1.2207e-4 H 960 V 540.00012 H 0 Z"
         id="path5844"
         inkscape:connector-curvature="0"
         style="clip-rule:evenodd" /></clipPath><clipPath
       clipPathUnits="userSpaceOnUse"
       id="clipPath5856"><path
         d="M 1.4305e-5,0 H 960.00001 V 540 H 1.4305e-5 Z"
         id="path5854"
         inkscape:connector-curvature="0"
         style="clip-rule:evenodd" /></clipPath><clipPath
       clipPathUnits="userSpaceOnUse"
       id="clipPath5868"><path
         d="M 1.4305e-5,0 H 960.00001 V 540 H 1.4305e-5 Z"
         id="path5866"
         inkscape:connector-curvature="0"
         style="clip-rule:evenodd" /></clipPath><clipPath
       clipPathUnits="userSpaceOnUse"
       id="clipPath5880"><path
         d="M 1.4305e-5,0 H 960.00001 V 540 H 1.4305e-5 Z"
         id="path5878"
         inkscape:connector-curvature="0"
         style="clip-rule:evenodd" /></clipPath><clipPath
       clipPathUnits="userSpaceOnUse"
       id="clipPath5892"><path
         d="M 1.4305e-5,0 H 960.00001 V 540 H 1.4305e-5 Z"
         id="path5890"
         inkscape:connector-curvature="0"
         style="clip-rule:evenodd" /></clipPath><clipPath
       clipPathUnits="userSpaceOnUse"
       id="clipPath5904"><path
         d="M 1.4305e-5,0 H 960.00001 V 540 H 1.4305e-5 Z"
         id="path5902"
         inkscape:connector-curvature="0"
         style="clip-rule:evenodd" /></clipPath><clipPath
       clipPathUnits="userSpaceOnUse"
       id="clipPath5916"><path
         d="M 1.4305e-5,0 H 960.00001 V 540 H 1.4305e-5 Z"
         id="path5914"
         inkscape:connector-curvature="0"
         style="clip-rule:evenodd" /></clipPath><clipPath
       clipPathUnits="userSpaceOnUse"
       id="clipPath5928"><path
         d="M 1.4305e-5,0 H 960.00001 V 540 H 1.4305e-5 Z"
         id="path5926"
         inkscape:connector-curvature="0"
         style="clip-rule:evenodd" /></clipPath><clipPath
       clipPathUnits="userSpaceOnUse"
       id="clipPath5940"><path
         d="M 1.4305e-5,0 H 960.00001 V 540 H 1.4305e-5 Z"
         id="path5938"
         inkscape:connector-curvature="0"
         style="clip-rule:evenodd" /></clipPath><clipPath
       clipPathUnits="userSpaceOnUse"
       id="clipPath5952"><path
         d="M 1.4305e-5,0 H 960.00001 V 540 H 1.4305e-5 Z"
         id="path5950"
         inkscape:connector-curvature="0"
         style="clip-rule:evenodd" /></clipPath><clipPath
       clipPathUnits="userSpaceOnUse"
       id="clipPath5968"><path
         d="M 1.4305e-5,0 H 960.00001 V 540 H 1.4305e-5 Z"
         id="path5966"
         inkscape:connector-curvature="0"
         style="clip-rule:evenodd" /></clipPath><clipPath
       clipPathUnits="userSpaceOnUse"
       id="clipPath5980"><path
         d="M 1.4305e-5,0 H 960.00001 V 540 H 1.4305e-5 Z"
         id="path5978"
         inkscape:connector-curvature="0"
         style="clip-rule:evenodd" /></clipPath><clipPath
       clipPathUnits="userSpaceOnUse"
       id="clipPath5992"><path
         d="M 1.4305e-5,0 H 960.00001 V 540 H 1.4305e-5 Z"
         id="path5990"
         inkscape:connector-curvature="0"
         style="clip-rule:evenodd" /></clipPath><clipPath
       clipPathUnits="userSpaceOnUse"
       id="clipPath6008"><path
         d="M 1.4305e-5,0 H 960.00001 V 540 H 1.4305e-5 Z"
         id="path6006"
         inkscape:connector-curvature="0"
         style="clip-rule:evenodd" /></clipPath><clipPath
       clipPathUnits="userSpaceOnUse"
       id="clipPath6020"><path
         d="M 1.4305e-5,0 H 960.00001 V 540 H 1.4305e-5 Z"
         id="path6018"
         inkscape:connector-curvature="0"
         style="clip-rule:evenodd" /></clipPath><clipPath
       clipPathUnits="userSpaceOnUse"
       id="clipPath6032"><path
         d="M 1.4305e-5,0 H 960.00001 V 540 H 1.4305e-5 Z"
         id="path6030"
         inkscape:connector-curvature="0"
         style="clip-rule:evenodd" /></clipPath><clipPath
       clipPathUnits="userSpaceOnUse"
       id="clipPath6044"><path
         d="M 1.4305e-5,0 H 960.00001 V 540 H 1.4305e-5 Z"
         id="path6042"
         inkscape:connector-curvature="0"
         style="clip-rule:evenodd" /></clipPath><clipPath
       clipPathUnits="userSpaceOnUse"
       id="clipPath6060"><path
         d="M 1.4305e-5,0 H 960.00001 V 540 H 1.4305e-5 Z"
         id="path6058"
         inkscape:connector-curvature="0"
         style="clip-rule:evenodd" /></clipPath><clipPath
       clipPathUnits="userSpaceOnUse"
       id="clipPath6072"><path
         d="M 1.4305e-5,0 H 960.00001 V 540 H 1.4305e-5 Z"
         id="path6070"
         inkscape:connector-curvature="0"
         style="clip-rule:evenodd" /></clipPath><clipPath
       clipPathUnits="userSpaceOnUse"
       id="clipPath6088"><path
         d="M 1.4305e-5,0 H 960.00001 V 540 H 1.4305e-5 Z"
         id="path6086"
         inkscape:connector-curvature="0"
         style="clip-rule:evenodd" /></clipPath><clipPath
       clipPathUnits="userSpaceOnUse"
       id="clipPath6100"><path
         d="M 1.4305e-5,0 H 960.00001 V 540 H 1.4305e-5 Z"
         id="path6098"
         inkscape:connector-curvature="0"
         style="clip-rule:evenodd" /></clipPath><clipPath
       clipPathUnits="userSpaceOnUse"
       id="clipPath6112"><path
         d="M 0,540 H 960 V 1.2207e-4 H 0"
         id="path6110"
         inkscape:connector-curvature="0"
         style="clip-rule:evenodd" /></clipPath><clipPath
       clipPathUnits="userSpaceOnUse"
       id="clipPath6128"><path
         d="M 1.4305e-5,0 H 960.00001 V 540 H 1.4305e-5 Z"
         id="path6126"
         inkscape:connector-curvature="0"
         style="clip-rule:evenodd" /></clipPath><clipPath
       clipPathUnits="userSpaceOnUse"
       id="clipPath6140"><path
         d="M 1.4305e-5,0 H 960.00001 V 540 H 1.4305e-5 Z"
         id="path6138"
         inkscape:connector-curvature="0"
         style="clip-rule:evenodd" /></clipPath><clipPath
       clipPathUnits="userSpaceOnUse"
       id="clipPath6152"><path
         d="M 1.4305e-5,0 H 960.00001 V 540 H 1.4305e-5 Z"
         id="path6150"
         inkscape:connector-curvature="0"
         style="clip-rule:evenodd" /></clipPath><clipPath
       clipPathUnits="userSpaceOnUse"
       id="clipPath6164"><path
         d="M 1.4305e-5,0 H 960.00001 V 540 H 1.4305e-5 Z"
         id="path6162"
         inkscape:connector-curvature="0"
         style="clip-rule:evenodd" /></clipPath><clipPath
       clipPathUnits="userSpaceOnUse"
       id="clipPath6178"><path
         d="M 1.4305e-5,0 H 960.00001 V 540 H 1.4305e-5 Z"
         id="path6176"
         inkscape:connector-curvature="0"
         style="clip-rule:evenodd" /></clipPath><clipPath
       clipPathUnits="userSpaceOnUse"
       id="clipPath6190"><path
         d="M 1.4305e-5,0 H 960.00001 V 540 H 1.4305e-5 Z"
         id="path6188"
         inkscape:connector-curvature="0"
         style="clip-rule:evenodd" /></clipPath><clipPath
       clipPathUnits="userSpaceOnUse"
       id="clipPath6204"><path
         d="M 1.4305e-5,0 H 960.00001 V 540 H 1.4305e-5 Z"
         id="path6202"
         inkscape:connector-curvature="0"
         style="clip-rule:evenodd" /></clipPath><clipPath
       clipPathUnits="userSpaceOnUse"
       id="clipPath6216"><path
         d="M 1.4305e-5,0 H 960.00001 V 540 H 1.4305e-5 Z"
         id="path6214"
         inkscape:connector-curvature="0"
         style="clip-rule:evenodd" /></clipPath><clipPath
       clipPathUnits="userSpaceOnUse"
       id="clipPath6228"><path
         d="M 1.4305e-5,0 H 960.00001 V 540 H 1.4305e-5 Z"
         id="path6226"
         inkscape:connector-curvature="0"
         style="clip-rule:evenodd" /></clipPath><clipPath
       clipPathUnits="userSpaceOnUse"
       id="clipPath6244"><path
         d="M 1.4305e-5,0 H 960.00001 V 540 H 1.4305e-5 Z"
         id="path6242"
         inkscape:connector-curvature="0"
         style="clip-rule:evenodd" /></clipPath><clipPath
       clipPathUnits="userSpaceOnUse"
       id="clipPath6256"><path
         d="M 1.4305e-5,0 H 960.00001 V 540 H 1.4305e-5 Z"
         id="path6254"
         inkscape:connector-curvature="0"
         style="clip-rule:evenodd" /></clipPath><clipPath
       clipPathUnits="userSpaceOnUse"
       id="clipPath6272"><path
         d="M 1.4305e-5,0 H 960.00001 V 540 H 1.4305e-5 Z"
         id="path6270"
         inkscape:connector-curvature="0"
         style="clip-rule:evenodd" /></clipPath><clipPath
       clipPathUnits="userSpaceOnUse"
       id="clipPath6284"><path
         d="M 1.4305e-5,0 H 960.00001 V 540 H 1.4305e-5 Z"
         id="path6282"
         inkscape:connector-curvature="0"
         style="clip-rule:evenodd" /></clipPath><clipPath
       clipPathUnits="userSpaceOnUse"
       id="clipPath6308"><path
         d="M 1.4305e-5,0 H 960.00001 V 540 H 1.4305e-5 Z"
         id="path6306"
         inkscape:connector-curvature="0"
         style="clip-rule:evenodd" /></clipPath><clipPath
       clipPathUnits="userSpaceOnUse"
       id="clipPath6320"><path
         d="M 1.4305e-5,0 H 960.00001 V 540 H 1.4305e-5 Z"
         id="path6318"
         inkscape:connector-curvature="0"
         style="clip-rule:evenodd" /></clipPath></defs><sodipodi:namedview
     pagecolor="#ffffff"
     bordercolor="#666666"
     borderopacity="1"
     objecttolerance="10"
     gridtolerance="10"
     guidetolerance="10"
     inkscape:pageopacity="0"
     inkscape:pageshadow="2"
     inkscape:window-width="2560"
     inkscape:window-height="1017"
     id="namedview5832"
     showgrid="false"
     inkscape:zoom="1.1777778"
     inkscape:cx="640"
     inkscape:cy="495.84906"
     inkscape:window-x="-8"
     inkscape:window-y="-8"
     inkscape:window-maximized="1"
     inkscape:current-layer="g5838" /><g
     id="g5838"
     inkscape:groupmode="layer"
     inkscape:label="Presentation1"
     transform="matrix(1.3333333,0,0,-1.3333333,0,720)"><g
       id="g5840"><g
         id="g5842"
         clip-path="url(#clipPath5846)"><path
           d="M 0,6.1035e-5 H 960 V 540.00006 H 0 Z"
           style="fill:#ffffff;fill-opacity:1;fill-rule:evenodd;stroke:none"
           id="path5848"
           inkscape:connector-curvature="0" /></g></g><g
       id="g5850"><g
         id="g5852"
         clip-path="url(#clipPath5856)"><text
           transform="matrix(1,0,0,-1,42.72,490.85)"
           style="font-variant:normal;font-weight:normal;font-size:18px;font-family:Calibri;-inkscape-font-specification:Calibri;writing-mode:lr-tb;fill:#000000;fill-opacity:1;fill-rule:nonzero;stroke:none"
           id="text5860"><tspan
             x="0 9.3059998 17.622 23.652 33.102001 42.588001"
             y="0"
             sodipodi:role="line"
             id="tspan5858">Python</tspan></text>
</g></g><g
       id="g5862"><g
         id="g5864"
         clip-path="url(#clipPath5868)"><text
           transform="matrix(1,0,0,-1,283.63,490.85)"
           style="font-variant:normal;font-weight:normal;font-size:18px;font-family:Calibri;-inkscape-font-specification:Calibri;writing-mode:lr-tb;fill:#000000;fill-opacity:1;fill-rule:nonzero;stroke:none"
           id="text5872"><tspan
             x="0 10.422 16.434 23.993999 33.299999"
             y="0"
             sodipodi:role="line"
             id="tspan5870">ArcPy</tspan></text>
</g></g><g
       id="g5874"><g
         id="g5876"
         clip-path="url(#clipPath5880)"><text
           transform="matrix(1,0,0,-1,274.99,474.77)"
           style="font-variant:normal;font-weight:normal;font-size:12px;font-family:Calibri;-inkscape-font-specification:Calibri;writing-mode:lr-tb;fill:#000000;fill-opacity:1;fill-rule:nonzero;stroke:none"
           id="text5884"><tspan
             x="0 3.6359999 10.584 14.64 19.68 27.252001 30.24 35.748001 38.507999 44.712002 48.708 55.032001"
             y="0"
             sodipodi:role="line"
             id="tspan5882">(ArcGIS Pro)</tspan></text>
</g></g><g
       id="g5886"><g
         id="g5888"
         clip-path="url(#clipPath5892)"><text
           transform="matrix(1,0,0,-1,488.74,490.85)"
           style="font-variant:normal;font-weight:normal;font-size:18px;font-family:Calibri;-inkscape-font-specification:Calibri;writing-mode:lr-tb;fill:#000000;fill-opacity:1;fill-rule:nonzero;stroke:none"
           id="text5896"><tspan
             x="0 10.422 16.434 23.993999 35.352001 39.942001 48.203999 52.181999 62.604 71.910004 76.445999 80.514 85.662003 95.148003 101.43 105.498 114.804 123.084 129.114 138.564 148.05"
             y="0"
             sodipodi:role="line"
             id="tspan5894">ArcGIS API for Python</tspan></text>
</g></g><g
       id="g5898"><g
         id="g5900"
         clip-path="url(#clipPath5904)"><text
           transform="matrix(1,0,0,-1,550.3,474.77)"
           style="font-variant:normal;font-weight:normal;font-size:12px;font-family:Calibri;-inkscape-font-specification:Calibri;writing-mode:lr-tb;fill:#000000;fill-opacity:1;fill-rule:nonzero;stroke:none"
           id="text5908"><tspan
             x="0 3.6359999 10.44 18.011999 25.92 30.959999"
             y="0"
             sodipodi:role="line"
             id="tspan5906">(AGOL)</tspan></text>
</g></g><g
       id="g5910"><g
         id="g5912"
         clip-path="url(#clipPath5916)"><text
           transform="matrix(1,0,0,-1,764.11,490.85)"
           style="font-variant:normal;font-weight:normal;font-size:18px;font-family:Calibri;-inkscape-font-specification:Calibri;writing-mode:lr-tb;fill:#000000;fill-opacity:1;fill-rule:nonzero;stroke:none"
           id="text5920"><tspan
             x="0 10.422 16.434 23.993999 35.352001 39.942001 48.203999 52.181999 63.251999 71.874001 78.912003 88.398003 97.848 107.334 115.956 122.004"
             y="0"
             sodipodi:role="line"
             id="tspan5918">ArcGIS Dashboard</tspan></text>
</g></g><g
       id="g5922"><g
         id="g5924"
         clip-path="url(#clipPath5928)"><text
           transform="matrix(1,0,0,-1,775.63,469.25)"
           style="font-variant:normal;font-weight:normal;font-size:18px;font-family:Calibri;-inkscape-font-specification:Calibri;writing-mode:lr-tb;fill:#000000;fill-opacity:1;fill-rule:nonzero;stroke:none"
           id="text5932"><tspan
             x="0 10.422 16.434 23.993999 35.352001 39.942001 48.203999 52.181999 56.717999 66.204002 73.241997 77.382004 85.860001 95.237999 101.268"
             y="0"
             sodipodi:role="line"
             id="tspan5930">ArcGIS Insights</tspan></text>
</g></g><g
       id="g5934"><g
         id="g5936"
         clip-path="url(#clipPath5940)"><text
           transform="matrix(1,0,0,-1,768.43,447.65)"
           style="font-variant:normal;font-weight:normal;font-size:18px;font-family:Calibri;-inkscape-font-specification:Calibri;writing-mode:lr-tb;fill:#000000;fill-opacity:1;fill-rule:nonzero;stroke:none"
           id="text5944"><tspan
             x="0 10.422 16.434 23.993999 35.352001 39.942001 48.203999"
             y="0"
             sodipodi:role="line"
             id="tspan5942">ArcGIS </tspan></text>
</g></g><g
       id="g5946"><g
         id="g5948"
         clip-path="url(#clipPath5952)"><text
           transform="matrix(1,0,0,-1,820.66,447.65)"
           style="font-variant:normal;font-weight:normal;font-size:18px;font-family:Calibri;-inkscape-font-specification:Calibri;writing-mode:lr-tb;fill:#000000;fill-opacity:1;fill-rule:nonzero;stroke:none"
           id="text5956"><tspan
             x="0 8.2620001 14.166 23.652 29.988001 38.141998 52.523998 61.146"
             y="0"
             sodipodi:role="line"
             id="tspan5954">Storymap</tspan></text>
</g></g><path
       d="m 20.82,381.66 h 96 v 47.28 h -96 z"
       style="fill:#fa7a27;fill-opacity:1;fill-rule:evenodd;stroke:none"
       id="path5958"
       inkscape:connector-curvature="0" /><path
       d="m 20.82,381.66 h 96 v 47.28 h -96 z"
       style="fill:none;stroke:#7d7d7d;stroke-width:2.27999997;stroke-linecap:butt;stroke-linejoin:round;stroke-miterlimit:10;stroke-dasharray:none;stroke-opacity:1"
       id="path5960"
       inkscape:connector-curvature="0" /><g
       id="g5962"><g
         id="g5964"
         clip-path="url(#clipPath5968)"><text
           transform="matrix(1,0,0,-1,36.456,415.08)"
           style="font-variant:normal;font-weight:normal;font-size:11.03999996px;font-family:Calibri;-inkscape-font-specification:Calibri;writing-mode:lr-tb;fill:#000000;fill-opacity:1;fill-rule:nonzero;stroke:none"
           id="text5972"><tspan
             x="0 6.8337598 12.70704 20.600639 26.396641 28.935841 34.6656 39.953758 45.705601 47.869438 53.1576 58.909439 64.672318"
             y="0"
             sodipodi:role="line"
             id="tspan5970">Download and </tspan></text>
</g></g><g
       id="g5974"><g
         id="g5976"
         clip-path="url(#clipPath5980)"><text
           transform="matrix(1,0,0,-1,44.136,401.88)"
           style="font-variant:normal;font-weight:normal;font-size:11.03999996px;font-family:Calibri;-inkscape-font-specification:Calibri;writing-mode:lr-tb;fill:#000000;fill-opacity:1;fill-rule:nonzero;stroke:none"
           id="text5984"><tspan
             x="0 5.7518401 9.6048002 15.10272 20.89872 24.70752 30.580799 35.250721 40.748638 45.08736"
             y="0"
             sodipodi:role="line"
             id="tspan5982">Preprocess</tspan></text>
</g></g><g
       id="g5986"><g
         id="g5988"
         clip-path="url(#clipPath5992)"><text
           transform="matrix(1,0,0,-1,42.576,388.68)"
           style="font-variant:normal;font-weight:normal;font-size:11.03999996px;font-family:Calibri;-inkscape-font-specification:Calibri;writing-mode:lr-tb;fill:#000000;fill-opacity:1;fill-rule:nonzero;stroke:none"
           id="text5996"><tspan
             x="0 5.8843198 13.1928 19.45248 22.201441 29.0352 31.32048 38.15424 43.442402 47.1408"
             y="0"
             sodipodi:role="line"
             id="tspan5994">COVID Data</tspan></text>
</g></g><path
       d="m 307.74,134.58 h 96 v 60.6 h -96 z"
       style="fill:#fa7a27;fill-opacity:1;fill-rule:evenodd;stroke:none"
       id="path5998"
       inkscape:connector-curvature="0" /><path
       d="m 307.74,134.58 h 96 v 60.6 h -96 z"
       style="fill:none;stroke:#7d7d7d;stroke-width:2.27999997;stroke-linecap:butt;stroke-linejoin:round;stroke-miterlimit:10;stroke-dasharray:none;stroke-opacity:1"
       id="path6000"
       inkscape:connector-curvature="0" /><g
       id="g6002"><g
         id="g6004"
         clip-path="url(#clipPath6008)"><text
           transform="matrix(1,0,0,-1,324.6,181.18)"
           style="font-variant:normal;font-weight:normal;font-size:11.03999996px;font-family:Calibri;-inkscape-font-specification:Calibri;writing-mode:lr-tb;fill:#000000;fill-opacity:1;fill-rule:nonzero;stroke:none"
           id="text6012"><tspan
             x="0 6.8337598 12.70704 20.600639 26.396641 28.935841 34.6656 39.953758 45.705601 47.869438 53.1576 58.909439 64.672318"
             y="0"
             sodipodi:role="line"
             id="tspan6010">Download and </tspan></text>
</g></g><g
       id="g6014"><g
         id="g6016"
         clip-path="url(#clipPath6020)"><text
           transform="matrix(1,0,0,-1,338.28,167.98)"
           style="font-variant:normal;font-weight:normal;font-size:11.03999996px;font-family:Calibri;-inkscape-font-specification:Calibri;writing-mode:lr-tb;fill:#000000;fill-opacity:1;fill-rule:nonzero;stroke:none"
           id="text6024"><tspan
             x="0 6.3921599 12.12192 17.41008 19.94928 24.950399 29.26704 34.787041"
             y="0"
             sodipodi:role="line"
             id="tspan6022">Analyse </tspan></text>
</g></g><g
       id="g6026"><g
         id="g6028"
         clip-path="url(#clipPath6032)"><text
           transform="matrix(1,0,0,-1,325.68,154.78)"
           style="font-variant:normal;font-weight:normal;font-size:11.03999996px;font-family:Calibri;-inkscape-font-specification:Calibri;writing-mode:lr-tb;fill:#000000;fill-opacity:1;fill-rule:nonzero;stroke:none"
           id="text6036"><tspan
             x="0 6.8337598 12.33168 21.21888 27.092159 32.247841 36.1008 41.388962 47.129761 52.771198 55.310398 59.98032"
             y="0"
             sodipodi:role="line"
             id="tspan6034">Demographic </tspan></text>
</g></g><g
       id="g6038"><g
         id="g6040"
         clip-path="url(#clipPath6044)"><text
           transform="matrix(1,0,0,-1,345.12,141.58)"
           style="font-variant:normal;font-weight:normal;font-size:11.03999996px;font-family:Calibri;-inkscape-font-specification:Calibri;writing-mode:lr-tb;fill:#000000;fill-opacity:1;fill-rule:nonzero;stroke:none"
           id="text6048"><tspan
             x="0 6.8337598 12.12192 15.82032"
             y="0"
             sodipodi:role="line"
             id="tspan6046">Data</tspan></text>
</g></g><path
       d="m 307.74,303.06 h 96 v 33.96 h -96 z"
       style="fill:#fa7a27;fill-opacity:1;fill-rule:evenodd;stroke:none"
       id="path6050"
       inkscape:connector-curvature="0" /><path
       d="m 307.74,303.06 h 96 v 33.96 h -96 z"
       style="fill:none;stroke:#7d7d7d;stroke-width:2.27999997;stroke-linecap:butt;stroke-linejoin:round;stroke-miterlimit:10;stroke-dasharray:none;stroke-opacity:1"
       id="path6052"
       inkscape:connector-curvature="0" /><g
       id="g6054"><g
         id="g6056"
         clip-path="url(#clipPath6060)"><text
           transform="matrix(1,0,0,-1,335.4,323.14)"
           style="font-variant:normal;font-weight:normal;font-size:11.06400013px;font-family:Calibri;-inkscape-font-specification:Calibri;writing-mode:lr-tb;fill:#000000;fill-opacity:1;fill-rule:nonzero;stroke:none"
           id="text6064"><tspan
             x="0 4.6468801 10.543992 15.843648 21.585863 23.865047 29.164703 34.906921 40.671265"
             y="0"
             sodipodi:role="line"
             id="tspan6062">Load and </tspan></text>
</g></g><g
       id="g6066"><g
         id="g6068"
         clip-path="url(#clipPath6072)"><text
           transform="matrix(1,0,0,-1,324,309.91)"
           style="font-variant:normal;font-weight:normal;font-size:11.03999996px;font-family:Calibri;-inkscape-font-specification:Calibri;writing-mode:lr-tb;fill:#000000;fill-opacity:1;fill-rule:nonzero;stroke:none"
           id="text6076"><tspan
             x="0 5.8843198 11.74656 20.611679 26.374559 28.913759 34.65456 40.152481 42.338402 49.172161 54.46032 58.158718"
             y="0"
             sodipodi:role="line"
             id="tspan6074">Combine Data</tspan></text>
</g></g><path
       d="m 519.54,303.06 h 96 v 33.96 h -96 z"
       style="fill:#fa7a27;fill-opacity:1;fill-rule:evenodd;stroke:none"
       id="path6078"
       inkscape:connector-curvature="0" /><path
       d="m 519.54,303.06 h 96 v 33.96 h -96 z"
       style="fill:none;stroke:#7d7d7d;stroke-width:2.27999997;stroke-linecap:butt;stroke-linejoin:round;stroke-miterlimit:10;stroke-dasharray:none;stroke-opacity:1"
       id="path6080"
       inkscape:connector-curvature="0" /><g
       id="g6082"><g
         id="g6084"
         clip-path="url(#clipPath6088)"><text
           transform="matrix(1,0,0,-1,533.76,323.14)"
           style="font-variant:normal;font-weight:normal;font-size:11.06400013px;font-family:Calibri;-inkscape-font-specification:Calibri;writing-mode:lr-tb;fill:#000000;fill-opacity:1;fill-rule:nonzero;stroke:none"
           id="text6092"><tspan
             x="0 5.7532802 11.517624 17.281967 19.826689 22.327152 26.653175 32.406456 34.685638 41.512127 46.811783 50.518223 55.817879 57.953232 61.659672 67.545723"
             y="0"
             sodipodi:role="line"
             id="tspan6090">Publish Data to </tspan></text>
</g></g><g
       id="g6094"><g
         id="g6096"
         clip-path="url(#clipPath6100)"><text
           transform="matrix(1,0,0,-1,543.6,309.91)"
           style="font-variant:normal;font-weight:normal;font-size:11.03999996px;font-family:Calibri;-inkscape-font-specification:Calibri;writing-mode:lr-tb;fill:#000000;fill-opacity:1;fill-rule:nonzero;stroke:none"
           id="text6104"><tspan
             x="0 5.2881598 9.14112 13.81104 18.955681 21.494881 25.81152 28.56048 33.2304 39.114719"
             y="0"
             sodipodi:role="line"
             id="tspan6102">arcgis.com</tspan></text>
</g></g><g
       id="g6106"><g
         id="g6108"
         clip-path="url(#clipPath6112)"><path
           d="m 68.26,381.72 v -62.14 h 234.4 v 1 H 68.76 l 0.5,-0.5 v 61.64 z m 233.4,-64.64 6,3 -6,3 z"
           style="fill:#000000;fill-opacity:1;fill-rule:nonzero;stroke:none"
           id="path6114"
           inkscape:connector-curvature="0" /></g></g><path
       d="m 403.68,319.66 h 110.77 v 1 H 403.68 Z m 109.77,-2.5 6,3 -6,3 z"
       style="fill:#000000;fill-opacity:1;fill-rule:nonzero;stroke:none"
       id="path6116"
       inkscape:connector-curvature="0" /><path
       d="m 519.54,217.38 h 96 v 47.28 h -96 z"
       style="fill:#fa7a27;fill-opacity:0.10196001;fill-rule:evenodd;stroke:none"
       id="path6118"
       inkscape:connector-curvature="0" /><path
       d="m 519.54,217.38 h 96 v 47.28 h -96 z"
       style="fill:none;stroke:#d9d9d9;stroke-width:2.27999997;stroke-linecap:butt;stroke-linejoin:round;stroke-miterlimit:10;stroke-dasharray:none;stroke-opacity:1"
       id="path6120"
       inkscape:connector-curvature="0" /><g
       id="g6122"><g
         id="g6124"
         clip-path="url(#clipPath6128)"><text
           transform="matrix(1,0,0,-1,538.44,250.73)"
           style="font-variant:normal;font-weight:normal;font-size:11.03999996px;font-family:Calibri;-inkscape-font-specification:Calibri;writing-mode:lr-tb;fill:#d9d9d9;fill-opacity:1;fill-rule:nonzero;stroke:none"
           id="text6132"><tspan
             x="0 6.2596798 8.7547197 13.07136 18.867359 24.111361 26.65056 29.156639 33.473282 38.971199 41.388962 46.67712 52.428959 58.191841"
             y="0"
             sodipodi:role="line"
             id="tspan6130">Visualize and </tspan></text>
</g></g><g
       id="g6134"><g
         id="g6136"
         clip-path="url(#clipPath6140)"><text
           transform="matrix(1,0,0,-1,533.16,237.53)"
           style="font-variant:normal;font-weight:normal;font-size:11.06400013px;font-family:Calibri;-inkscape-font-specification:Calibri;writing-mode:lr-tb;fill:#d9d9d9;fill-opacity:1;fill-rule:nonzero;stroke:none"
           id="text6144"><tspan
             x="0 6.3618002 12.126144 17.4258 19.926264 24.938255 29.26428 34.774151"
             y="0"
             sodipodi:role="line"
             id="tspan6142">Analyse </tspan></text>
</g></g><g
       id="g6146"><g
         id="g6148"
         clip-path="url(#clipPath6152)"><text
           transform="matrix(1,0,0,-1,570.24,237.53)"
           style="font-variant:normal;font-weight:normal;font-size:11.06400013px;font-family:Calibri;-inkscape-font-specification:Calibri;writing-mode:lr-tb;fill:#d9d9d9;fill-opacity:1;fill-rule:nonzero;stroke:none"
           id="text6156"><tspan
             x="0 6.826488 12.126144 15.832584 21.13224 23.389296 25.934015"
             y="0"
             sodipodi:role="line"
             id="tspan6154">Data in</tspan></text>
</g></g><g
       id="g6158"><g
         id="g6160"
         clip-path="url(#clipPath6164)"><text
           transform="matrix(1,0,0,-1,543.12,224.3)"
           style="font-variant:normal;font-weight:normal;font-size:11.03999996px;font-family:Calibri;-inkscape-font-specification:Calibri;writing-mode:lr-tb;fill:#d9d9d9;fill-opacity:1;fill-rule:nonzero;stroke:none"
           id="text6168"><tspan
             x="0 7.0766401 12.94992 16.648319 22.179359 27.94224 33.815521 39.5784 44.601601"
             y="0"
             sodipodi:role="line"
             id="tspan6166">Notebooks</tspan></text>
</g></g><path
       d="m 567.98,303.12 v -33.46 h -1 v 33.46 z m 2.5,-32.46 -3,-6 -3,6 z"
       style="fill:#000000;fill-opacity:1;fill-rule:nonzero;stroke:none"
       id="path6170"
       inkscape:connector-curvature="0" /><g
       id="g6172"><g
         id="g6174"
         clip-path="url(#clipPath6178)"><text
           transform="matrix(1,0,0,-1,793.3,408.41)"
           style="font-variant:normal;font-weight:normal;font-size:11.03999996px;font-family:Calibri;-inkscape-font-specification:Calibri;writing-mode:lr-tb;fill:#d9d9d9;fill-opacity:1;fill-rule:nonzero;stroke:none"
           id="text6182"><tspan
             x="0 6.2596798 8.7547197 13.07136 18.867359 24.111361 26.65056 29.156639 33.473282 38.971199 41.388962 48.222721 53.51088 57.209278 62.49744 64.782722 67.321922"
             y="0"
             sodipodi:role="line"
             id="tspan6180">Visualize Data in</tspan></text>
</g></g><g
       id="g6184"><g
         id="g6186"
         clip-path="url(#clipPath6190)"><text
           transform="matrix(1,0,0,-1,803.26,395.21)"
           style="font-variant:normal;font-weight:normal;font-size:11.03999996px;font-family:Calibri;-inkscape-font-specification:Calibri;writing-mode:lr-tb;fill:#d9d9d9;fill-opacity:1;fill-rule:nonzero;stroke:none"
           id="text6194"><tspan
             x="0 6.8558402 12.144 16.46064 22.212481 27.975361 33.84864 39.136799 42.989761 48.73056"
             y="0"
             sodipodi:role="line"
             id="tspan6192">Dashboards</tspan></text>
</g></g><path
       d="m 615.48,319.59 h 83.64 v 85.77 l -0.5,-0.5 h 78.14 v 1 h -78.64 v -85.77 l 0.5,0.5 h -83.14 z m 160.28,82.77 6,3 -6,3 z"
       style="fill:#d9d9d9;fill-opacity:1;fill-rule:nonzero;stroke:none"
       id="path6196"
       inkscape:connector-curvature="0" /><g
       id="g6198"><g
         id="g6200"
         clip-path="url(#clipPath6204)"><text
           transform="matrix(1,0,0,-1,795.36,323.14)"
           style="font-variant:normal;font-weight:normal;font-size:11.06400013px;font-family:Calibri;-inkscape-font-specification:Calibri;writing-mode:lr-tb;fill:#000000;fill-opacity:1;fill-rule:nonzero;stroke:none"
           id="text6208"><tspan
             x="0 6.3618002 12.126144 17.4258 19.926264 24.938255 29.308537"
             y="0"
             sodipodi:role="line"
             id="tspan6206">Analyze</tspan></text>
</g></g><g
       id="g6210"><g
         id="g6212"
         clip-path="url(#clipPath6216)"><text
           transform="matrix(1,0,0,-1,832.56,323.14)"
           style="font-variant:normal;font-weight:normal;font-size:11.06400013px;font-family:Calibri;-inkscape-font-specification:Calibri;writing-mode:lr-tb;fill:#000000;fill-opacity:1;fill-rule:nonzero;stroke:none"
           id="text6220"><tspan
             x="0 6.826488 12.126144 15.832584 21.13224 23.389296 25.934015"
             y="0"
             sodipodi:role="line"
             id="tspan6218">Data in</tspan></text>
</g></g><g
       id="g6222"><g
         id="g6224"
         clip-path="url(#clipPath6228)"><text
           transform="matrix(1,0,0,-1,803.28,309.91)"
           style="font-variant:normal;font-weight:normal;font-size:11.03999996px;font-family:Calibri;-inkscape-font-specification:Calibri;writing-mode:lr-tb;fill:#000000;fill-opacity:1;fill-rule:nonzero;stroke:none"
           id="text6232"><tspan
             x="0 6.8337598 12.12192 16.43856 22.190399 27.953279 33.826561 39.114719 42.967682 48.708481"
             y="0"
             sodipodi:role="line"
             id="tspan6230">Dashboards</tspan></text>
</g></g><path
       d="m 519.54,388.5 h 96 v 33.96 h -96 z"
       style="fill:#fa7a27;fill-opacity:0.10196001;fill-rule:evenodd;stroke:none"
       id="path6234"
       inkscape:connector-curvature="0" /><path
       d="m 519.54,388.5 h 96 v 33.96 h -96 z"
       style="fill:none;stroke:#d9d9d9;stroke-width:2.27999997;stroke-linecap:butt;stroke-linejoin:round;stroke-miterlimit:10;stroke-dasharray:none;stroke-opacity:1"
       id="path6236"
       inkscape:connector-curvature="0" /><g
       id="g6238"><g
         id="g6240"
         clip-path="url(#clipPath6244)"><text
           transform="matrix(1,0,0,-1,532.32,408.55)"
           style="font-variant:normal;font-weight:normal;font-size:11.03999996px;font-family:Calibri;-inkscape-font-specification:Calibri;writing-mode:lr-tb;fill:#d9d9d9;fill-opacity:1;fill-rule:nonzero;stroke:none"
           id="text6248"><tspan
             x="0 7.0876799 12.83952 18.6024 23.89056 27.588961 33.108959 35.394241 42.228001 47.516159 51.214561 56.50272 58.787998 64.661278 70.424156"
             y="0"
             sodipodi:role="line"
             id="tspan6246">Update Data on </tspan></text>
</g></g><g
       id="g6250"><g
         id="g6252"
         clip-path="url(#clipPath6256)"><text
           transform="matrix(1,0,0,-1,543.6,395.35)"
           style="font-variant:normal;font-weight:normal;font-size:11.03999996px;font-family:Calibri;-inkscape-font-specification:Calibri;writing-mode:lr-tb;fill:#d9d9d9;fill-opacity:1;fill-rule:nonzero;stroke:none"
           id="text6260"><tspan
             x="0 5.2881598 9.14112 13.81104 18.955681 21.494881 25.81152 28.56048 33.2304 39.114719"
             y="0"
             sodipodi:role="line"
             id="tspan6258">arcgis.com</tspan></text>
</g></g><path
       d="m 116.76,404.95 397.68,0.15 v 1 l -397.68,-0.15 z m 396.68,-2.35 6,3 -6.01,3 z"
       style="fill:#d9d9d9;fill-opacity:1;fill-rule:nonzero;stroke:none"
       id="path6262"
       inkscape:connector-curvature="0" /><path
       d="m 567.98,388.56 v -46.49 h -1 v 46.49 z m 2.5,-45.49 -3,-6 -3,6 z"
       style="fill:#000000;fill-opacity:1;fill-rule:nonzero;stroke:none"
       id="path6264"
       inkscape:connector-curvature="0" /><g
       id="g6266"><g
         id="g6268"
         clip-path="url(#clipPath6272)"><text
           transform="matrix(1,0,0,-1,791.62,237.84)"
           style="font-variant:normal;font-weight:normal;font-size:11.03999996px;font-family:Calibri;-inkscape-font-specification:Calibri;writing-mode:lr-tb;fill:#d9d9d9;fill-opacity:1;fill-rule:nonzero;stroke:none"
           id="text6276"><tspan
             x="0 5.8843198 9.7372799 15.2352 20.523359 24.22176 29.7528"
             y="0"
             sodipodi:role="line"
             id="tspan6274">Create </tspan></text>
</g></g><g
       id="g6278"><g
         id="g6280"
         clip-path="url(#clipPath6284)"><text
           transform="matrix(1,0,0,-1,823.78,237.84)"
           style="font-variant:normal;font-weight:normal;font-size:11.03999996px;font-family:Calibri;-inkscape-font-specification:Calibri;writing-mode:lr-tb;fill:#d9d9d9;fill-opacity:1;fill-rule:nonzero;stroke:none"
           id="text6288"><tspan
             x="0 5.0673599 8.7657604 14.628 18.480961 23.48208 32.26992 37.558079"
             y="0"
             sodipodi:role="line"
             id="tspan6286">Storymap</tspan></text>
</g></g><path
       d="m 615.48,320.66 h 83.4 v -79.1 l -0.5,0.5 h 77.89 v -1 h -78.39 v 79.1 l 0.5,-0.5 h -82.9 z m 159.79,-76.1 6,-3 -6,-3 z"
       style="fill:#d9d9d9;fill-opacity:1;fill-rule:nonzero;stroke:none"
       id="path6290"
       inkscape:connector-curvature="0" /><path
       d="m 615.48,320.66 h 161.28 v -1 H 615.48 Z m 160.28,2.5 6,-3 -6,-3 z"
       style="fill:#000000;fill-opacity:1;fill-rule:nonzero;stroke:none"
       id="path6292"
       inkscape:connector-curvature="0" /><g
       id="g6294"><path
         d="M 658.74,529.74 V 104.58"
         style="fill:none;stroke:#7d7d7d;stroke-width:1.55999994;stroke-linecap:butt;stroke-linejoin:miter;stroke-miterlimit:8;stroke-dasharray:6.24, 4.68;stroke-dashoffset:0;stroke-opacity:1"
         id="path6296"
         inkscape:connector-curvature="0" /></g><path
       d="m 175.38,223.62 h 96 v 33.96 h -96 z"
       style="fill:#fa7a27;fill-opacity:1;fill-rule:evenodd;stroke:none"
       id="path6298"
       inkscape:connector-curvature="0" /><path
       d="m 175.38,223.62 h 96 v 33.96 h -96 z"
       style="fill:none;stroke:#7d7d7d;stroke-width:2.27999997;stroke-linecap:butt;stroke-linejoin:round;stroke-miterlimit:10;stroke-dasharray:none;stroke-opacity:1"
       id="path6300"
       inkscape:connector-curvature="0" /><g
       id="g6302"><g
         id="g6304"
         clip-path="url(#clipPath6308)"><text
           transform="matrix(1,0,0,-1,184.94,243.67)"
           style="font-variant:normal;font-weight:normal;font-size:11.03999996px;font-family:Calibri;-inkscape-font-specification:Calibri;writing-mode:lr-tb;fill:#000000;fill-opacity:1;fill-rule:nonzero;stroke:none"
           id="text6312"><tspan
             x="0 5.8843198 9.7372799 15.2352 20.523359 24.22176 29.7528 32.148479 37.215839 39.71088 48.576 54.338879 56.878078 59.384159 62.751362 65.290558 70.788483 76.540321"
             y="0"
             sodipodi:role="line"
             id="tspan6310">Create Simplified </tspan></text>
</g></g><g
       id="g6314"><g
         id="g6316"
         clip-path="url(#clipPath6320)"><text
           transform="matrix(1,0,0,-1,203.18,230.47)"
           style="font-variant:normal;font-weight:normal;font-size:11.03999996px;font-family:Calibri;-inkscape-font-specification:Calibri;writing-mode:lr-tb;fill:#000000;fill-opacity:1;fill-rule:nonzero;stroke:none"
           id="text6324"><tspan
             x="0 5.7518401 11.62512 14.16432 19.16544 24.36528 30.106079 35.868961"
             y="0"
             sodipodi:role="line"
             id="tspan6322">Polygons</tspan></text>
</g></g><g
       id="g6326"><path
         d="M 474.96,532.2 V 111.94"
         style="fill:none;stroke:#7d7d7d;stroke-width:0.47999999;stroke-linecap:butt;stroke-linejoin:miter;stroke-miterlimit:8;stroke-dasharray:1.92, 1.44;stroke-dashoffset:0;stroke-opacity:1"
         id="path6328"
         inkscape:connector-curvature="0" /></g><g
       id="g6330"><path
         d="M 125.4,532.2 V 120.52"
         style="fill:none;stroke:#7d7d7d;stroke-width:0.47999999;stroke-linecap:butt;stroke-linejoin:miter;stroke-miterlimit:8;stroke-dasharray:1.92, 1.44;stroke-dashoffset:0;stroke-opacity:1"
         id="path6332"
         inkscape:connector-curvature="0" /></g><path
       d="m 307.76,164.34 h -4 v 1 h 4 z m -7,0 h -4 v 1 h 4 z m -7,0 h -4 v 1 h 4 z m -7,0 h -4 v 1 h 4 z m -7,0 h -4 v 1 h 4 z m -7,0 h -4 v 1 h 4 z m -7,0 h -4 v 1 h 4 z m -7,0 h -4 v 1 h 4 z m -7,0 h -4 v 1 h 4 z m -7,0 h -4 v 1 h 4 z m -7,0 h -4 v 1 h 4 z m -7,0 h -4 v 1 h 4 z m -7,0 h -0.94 v 4.07 h 1 v -3.57 l -0.5,0.5 h 0.44 z m -0.94,7.07 v 4 h 1 v -4 z m 0,7 v 4 h 1 v -4 z m 0,7 v 4 h 1 v -4 z m 0,7 v 4 h 1 v -4 z m 0,7 v 4 h 1 v -4 z m 0,7 v 4 h 1 v -4 z m 0,7 v 4 h 1 v -4 z m -2.5,4.27 3,6 3,-6 z"
       style="fill:#000000;fill-opacity:1;fill-rule:nonzero;stroke:none"
       id="path6334"
       inkscape:connector-curvature="0" /><path
       d="m 271.32,240.15 h 4 v 1 h -4 z m 7,0 h 4 v 1 h -4 z m 7,0 h 4 v 1 h -4 z m 7,0 h 4 v 1 h -4 z m 7,0 h 4 v 1 h -4 z m 7,0 h 4 v 1 h -4 z m 7,0 h 4 v 1 h -4 z m 7,0 h 4 v 1 h -4 z m 7,0 h 4 v 1 h -4 z m 7,0 h 4 v 1 h -4 z m 7,0 h 4 v 1 h -4 z m 7,0 h 4 v 1 h -4 z m 7,0 h 0.94 v 4.06 h -1 v -3.56 l 0.5,0.5 h -0.44 z m 0.94,7.06 v 4 h -1 v -4 z m 0,7 v 4 h -1 v -4 z m 0,7 v 4 h -1 v -4 z m 0,7 v 4 h -1 v -4 z m 0,7 v 4 h -1 v -4 z m 0,7 v 4 h -1 v -4 z m 0,7 v 4 h -1 v -4 z m 0,7 v 1.91 h -1 v -1.91 z m 2.5,0.91 -3,6 -3,-6 z"
       style="fill:#000000;fill-opacity:1;fill-rule:nonzero;stroke:none"
       id="path6336"
       inkscape:connector-curvature="0" /><path
       d="M 355.68,195.14 V 303.12"
       style="fill:none;stroke:#000000;stroke-width:0.47999999;stroke-linecap:butt;stroke-linejoin:miter;stroke-miterlimit:8;stroke-dasharray:none;stroke-opacity:1"
       id="path6338"
       inkscape:connector-curvature="0" /></g></svg>